<?xml version="1.0" encoding="UTF-8"?>
<!DOCTYPE svg PUBLIC "-//W3C//DTD SVG 1.1//EN" "http://www.w3.org/Graphics/SVG/1.1/DTD/svg11.dtd">
<svg xmlns="http://www.w3.org/2000/svg" version="1.1" width="130px" height="130px" style="shape-rendering:geometricPrecision; text-rendering:geometricPrecision; image-rendering:optimizeQuality; fill-rule:evenodd; clip-rule:evenodd" xmlns:xlink="http://www.w3.org/1999/xlink">
<g><path style="opacity:1" fill="#fdfdfd" d="M -0.5,-0.5 C 42.8333,-0.5 86.1667,-0.5 129.5,-0.5C 129.5,42.8333 129.5,86.1667 129.5,129.5C 86.1667,129.5 42.8333,129.5 -0.5,129.5C -0.5,86.1667 -0.5,42.8333 -0.5,-0.5 Z"/></g>
<g><path style="opacity:1" fill="#313131" d="M 5.5,18.5 C 44.8762,18.1727 84.2095,18.5061 123.5,19.5C 124.192,20.0253 124.692,20.6919 125,21.5C 125.167,34.5 125.333,47.5 125.5,60.5C 125.65,74.2573 125.15,87.9239 124,101.5C 123.5,102 123,102.5 122.5,103C 115.833,103.333 109.167,103.667 102.5,104C 95.5396,109.292 88.8729,114.958 82.5,121C 78.2998,123.719 75.9665,122.719 75.5,118C 76.3707,113.181 77.7041,108.514 79.5,104C 54.7459,103.981 30.0793,103.315 5.5,102C 4.87424,101.25 4.37424,100.416 4,99.5C 3.33333,73.1667 3.33333,46.8333 4,20.5C 4.71719,19.9558 5.21719,19.2891 5.5,18.5 Z"/></g>
<g><path style="opacity:1" fill="#fcfcfc" d="M 11.5,26.5 C 46.8333,26.5 82.1667,26.5 117.5,26.5C 117.5,49.5 117.5,72.5 117.5,95.5C 111.491,95.3338 105.491,95.5005 99.5,96C 95.3333,99.5 91.1667,103 87,106.5C 87.6081,103.153 87.4414,99.8198 86.5,96.5C 61.5089,95.5002 36.5089,95.1669 11.5,95.5C 11.5,72.5 11.5,49.5 11.5,26.5 Z"/></g>
<g><path style="opacity:1" fill="#2e2e2e" d="M 28.5,45.5 C 52.5023,45.3334 76.5023,45.5 100.5,46C 103.054,48.2691 103.054,50.6025 100.5,53C 76.5,53.6667 52.5,53.6667 28.5,53C 25.9142,50.506 25.9142,48.006 28.5,45.5 Z"/></g>
<g><path style="opacity:1" fill="#323232" d="M 28.5,67.5 C 45.5033,67.3334 62.5033,67.5001 79.5,68C 82.1667,70.3333 82.1667,72.6667 79.5,75C 62.1667,75.6667 44.8333,75.6667 27.5,75C 26.0825,72.2565 26.4159,69.7565 28.5,67.5 Z"/></g>
</svg>
