<?xml version="1.0" encoding="UTF-8"?>
<!DOCTYPE svg PUBLIC "-//W3C//DTD SVG 1.1//EN" "http://www.w3.org/Graphics/SVG/1.1/DTD/svg11.dtd">
<svg xmlns="http://www.w3.org/2000/svg" version="1.1" width="227px" height="227px" style="shape-rendering:geometricPrecision; text-rendering:geometricPrecision; image-rendering:optimizeQuality; fill-rule:evenodd; clip-rule:evenodd" xmlns:xlink="http://www.w3.org/1999/xlink">
<g><path style="opacity:1" fill="#fbfbfb" d="M -0.5,-0.5 C 75.1667,-0.5 150.833,-0.5 226.5,-0.5C 226.5,75.1667 226.5,150.833 226.5,226.5C 150.833,226.5 75.1667,226.5 -0.5,226.5C -0.5,150.833 -0.5,75.1667 -0.5,-0.5 Z"/></g>
<g><path style="opacity:1" fill="#0a0a0a" d="M 59.5,7.5 C 64.8552,6.34529 69.0219,8.01195 72,12.5C 72.6667,23.8333 72.6667,35.1667 72,46.5C 69.1034,51.1549 64.9367,52.6549 59.5,51C 57.6217,49.4571 56.1217,47.6238 55,45.5C 54.3333,34.5 54.3333,23.5 55,12.5C 56.3657,10.6383 57.8657,8.97167 59.5,7.5 Z"/></g>
<g><path style="opacity:1" fill="#0d0d0d" d="M 136.5,7.5 C 143.301,5.71773 147.801,8.05106 150,14.5C 150.931,25.5728 150.597,36.5728 149,47.5C 143.11,53.1742 137.777,52.8409 133,46.5C 132.333,35.1667 132.333,23.8333 133,12.5C 133.997,10.6769 135.164,9.01027 136.5,7.5 Z"/></g>
<g><path style="opacity:1" fill="#838383" d="M 48.5,22.5 C 39.3606,21.9897 30.3606,22.6564 21.5,24.5C 22.347,23.0337 23.6803,22.2004 25.5,22C 33.3446,21.1777 41.0113,21.3443 48.5,22.5 Z"/></g>
<g><path style="opacity:1" fill="#060606" d="M 48.5,22.5 C 48.0863,31.5822 48.5863,40.5822 50,49.5C 55.7891,57.9511 63.2891,59.7844 72.5,55C 75.1353,53.0395 76.9686,50.5395 78,47.5C 78.4997,39.1733 78.6664,30.84 78.5,22.5C 94.1667,22.5 109.833,22.5 125.5,22.5C 125.175,30.0191 125.508,37.3524 126.5,44.5C 130.696,58.0742 139.03,61.2409 151.5,54C 153.761,51.2284 155.261,48.0618 156,44.5C 156.5,37.1742 156.666,29.8409 156.5,22.5C 164.507,22.3336 172.507,22.5003 180.5,23C 188.01,25.3444 193.01,30.1777 195.5,37.5C 195.5,38.8333 195.5,40.1667 195.5,41.5C 196.159,70.5195 195.492,99.1861 193.5,127.5C 192.609,126.89 191.609,126.557 190.5,126.5C 189.828,125.733 188.995,125.066 188,124.5C 187.5,109.504 187.333,94.5037 187.5,79.5C 131.167,79.5 74.8333,79.5 18.5,79.5C 17.3356,115.664 17.169,151.998 18,188.5C 18.2784,189.416 18.7784,190.082 19.5,190.5C 21.0916,194.584 24.0916,197.084 28.5,198C 56.8392,198.167 85.1725,198.667 113.5,199.5C 114.26,201.36 115.26,203.027 116.5,204.5C 87.1855,206.492 57.5188,207.159 27.5,206.5C 17.7191,204.89 11.5524,199.223 9,189.5C 8.33333,139.167 8.33333,88.8333 9,38.5C 10.9198,31.7509 15.0864,27.0842 21.5,24.5C 30.3606,22.6564 39.3606,21.9897 48.5,22.5 Z"/></g>
<g><path style="opacity:1" fill="#646464" d="M 78.5,22.5 C 94.3246,21.5036 110.325,21.1703 126.5,21.5C 126.5,29.1667 126.5,36.8333 126.5,44.5C 125.508,37.3524 125.175,30.0191 125.5,22.5C 109.833,22.5 94.1667,22.5 78.5,22.5 Z"/></g>
<g><path style="opacity:1" fill="#dadada" d="M 195.5,37.5 C 196.268,38.2625 196.768,39.2625 197,40.5C 197.5,70.1648 197.667,99.8315 197.5,129.5C 196.209,129.737 195.209,129.404 194.5,128.5C 195.833,114.349 196.499,99.8491 196.5,85C 196.5,70.3294 196.167,55.8294 195.5,41.5C 195.5,40.1667 195.5,38.8333 195.5,37.5 Z"/></g>
<g><path style="opacity:1" fill="#404040" d="M 195.5,41.5 C 196.167,55.8294 196.5,70.3294 196.5,85C 196.499,99.8491 195.833,114.349 194.5,128.5C 193.833,128.5 193.5,128.167 193.5,127.5C 195.492,99.1861 196.159,70.5195 195.5,41.5 Z"/></g>
<g><path style="opacity:1" fill="#e8e8e8" d="M 18.5,80.5 C 18.5,80.1667 18.5,79.8333 18.5,79.5C 74.8333,79.5 131.167,79.5 187.5,79.5C 187.333,94.5037 187.5,109.504 188,124.5C 188.995,125.066 189.828,125.733 190.5,126.5C 189.373,127.122 188.373,127.955 187.5,129C 189.184,130.209 190.517,131.709 191.5,133.5C 186.129,131.145 180.795,128.812 175.5,126.5C 177.547,126.511 179.547,126.844 181.5,127.5C 183.601,127.368 185.101,126.368 186,124.5C 186.5,109.837 186.667,95.1705 186.5,80.5C 130.5,80.5 74.5,80.5 18.5,80.5 Z"/></g>
<g><path style="opacity:1" fill="#cbcbcb" d="M 18.5,79.5 C 18.5,79.8333 18.5,80.1667 18.5,80.5C 18.1857,117.197 18.519,153.864 19.5,190.5C 18.7784,190.082 18.2784,189.416 18,188.5C 17.169,151.998 17.3356,115.664 18.5,79.5 Z"/></g>
<g><path style="opacity:1" fill="#333333" d="M 159.5,118.5 C 159.5,113.5 159.5,108.5 159.5,103.5C 151.167,103.5 142.833,103.5 134.5,103.5C 134.5,111.167 134.5,118.833 134.5,126.5C 133.508,118.684 133.174,110.684 133.5,102.5C 142.5,102.5 151.5,102.5 160.5,102.5C 160.821,108.026 160.488,113.36 159.5,118.5 Z"/></g>
<g><path style="opacity:1" fill="#010101" d="M 44.5,103.5 C 52.8333,103.5 61.1667,103.5 69.5,103.5C 69.5,111.833 69.5,120.167 69.5,128.5C 61.1667,128.5 52.8333,128.5 44.5,128.5C 44.5,120.167 44.5,111.833 44.5,103.5 Z"/></g>
<g><path style="opacity:1" fill="#040404" d="M 159.5,118.5 C 150.464,119.196 142.131,121.862 134.5,126.5C 134.5,118.833 134.5,111.167 134.5,103.5C 142.833,103.5 151.167,103.5 159.5,103.5C 159.5,108.5 159.5,113.5 159.5,118.5 Z"/></g>
<g><path style="opacity:1" fill="#303030" d="M 88.5,102.5 C 97.5,102.5 106.5,102.5 115.5,102.5C 115.5,111.5 115.5,120.5 115.5,129.5C 106.5,129.5 97.5,129.5 88.5,129.5C 88.5,120.5 88.5,111.5 88.5,102.5 Z"/></g>
<g><path style="opacity:1" fill="#000000" d="M 89.5,103.5 C 97.8333,103.5 106.167,103.5 114.5,103.5C 114.5,111.833 114.5,120.167 114.5,128.5C 106.167,128.5 97.8333,128.5 89.5,128.5C 89.5,120.167 89.5,111.833 89.5,103.5 Z"/></g>
<g><path style="opacity:1" fill="#303030" d="M 44.5,103.5 C 53.3178,102.507 62.3178,102.173 71.5,102.5C 71.5,111.5 71.5,120.5 71.5,129.5C 62.3178,129.827 53.3178,129.493 44.5,128.5C 52.8333,128.5 61.1667,128.5 69.5,128.5C 69.5,120.167 69.5,111.833 69.5,103.5C 61.1667,103.5 52.8333,103.5 44.5,103.5 Z"/></g>
<g><path style="opacity:1" fill="#060606" d="M 175.5,126.5 C 180.795,128.812 186.129,131.145 191.5,133.5C 210.229,148.318 216.395,167.318 210,190.5C 200.711,212.902 183.878,223.902 159.5,223.5C 154.95,222.509 150.283,221.509 145.5,220.5C 129.399,213.563 119.232,201.563 115,184.5C 111.082,161.874 118.582,144.374 137.5,132C 149.507,125.72 162.173,123.887 175.5,126.5 Z"/></g>
<g><path style="opacity:1" fill="#a5a5a6" d="M 89.5,147.5 C 97.6499,146.507 105.983,146.174 114.5,146.5C 114.737,147.791 114.404,148.791 113.5,149.5C 105.903,147.533 97.9032,146.866 89.5,147.5 Z"/></g>
<g><path style="opacity:1" fill="#040404" d="M 89.5,147.5 C 97.9032,146.866 105.903,147.533 113.5,149.5C 110.85,154.115 109.184,159.115 108.5,164.5C 107.523,167.287 107.19,170.287 107.5,173.5C 101.5,173.5 95.5,173.5 89.5,173.5C 89.5,164.833 89.5,156.167 89.5,147.5 Z"/></g>
<g><path style="opacity:1" fill="#f4f4f4" d="M 187.5,149.5 C 194.493,147.996 197.327,150.663 196,157.5C 182.058,171.442 168.225,185.275 154.5,199C 152.833,199.667 151.167,199.667 149.5,199C 143,192.5 136.5,186 130,179.5C 129.254,172.429 132.421,169.929 139.5,172C 143.5,176 147.5,180 151.5,184C 152.167,184.667 152.833,184.667 153.5,184C 165.035,172.632 176.369,161.132 187.5,149.5 Z"/></g>
<g><path style="opacity:1" fill="#6b6b6b" d="M 44.5,147.5 C 44.5,156.167 44.5,164.833 44.5,173.5C 53.1667,173.5 61.8333,173.5 70.5,173.5C 70.5,164.833 70.5,156.167 70.5,147.5C 71.4933,156.318 71.8266,165.318 71.5,174.5C 62.1667,174.5 52.8333,174.5 43.5,174.5C 43.1734,165.318 43.5067,156.318 44.5,147.5 Z"/></g>
<g><path style="opacity:1" fill="#030303" d="M 44.5,147.5 C 53.1667,147.5 61.8333,147.5 70.5,147.5C 70.5,156.167 70.5,164.833 70.5,173.5C 61.8333,173.5 53.1667,173.5 44.5,173.5C 44.5,164.833 44.5,156.167 44.5,147.5 Z"/></g>
<g><path style="opacity:1" fill="#6b6b6b" d="M 89.5,147.5 C 89.5,156.167 89.5,164.833 89.5,173.5C 95.5,173.5 101.5,173.5 107.5,173.5C 107.19,170.287 107.523,167.287 108.5,164.5C 108.5,167.833 108.5,171.167 108.5,174.5C 101.833,174.5 95.1667,174.5 88.5,174.5C 88.1734,165.318 88.5067,156.318 89.5,147.5 Z"/></g>
<g><path style="opacity:1" fill="#868686" d="M 116.5,204.5 C 117.404,205.209 117.737,206.209 117.5,207.5C 87.3287,207.831 57.3287,207.498 27.5,206.5C 57.5188,207.159 87.1855,206.492 116.5,204.5 Z"/></g>
<g><path style="opacity:1" fill="#4d4d4d" d="M 145.5,220.5 C 150.283,221.509 154.95,222.509 159.5,223.5C 154.404,223.956 149.738,222.956 145.5,220.5 Z"/></g>
</svg>
